<svg xmlns="http://www.w3.org/2000/svg" width="1024" height="1024" viewBox="0 0 1024 1024" role="img" aria-labelledby="title">
  <title id="title">Commentray logo (raster trace)</title>
  <desc>Vector trace of flat PNG palette (navy, grey, yellow).</desc>
  <path fill="#13203b" fill-rule="evenodd" stroke="none" d="M349.00,157.50 L668.00,157.50 L669.00,158.50 L674.00,158.50 L675.00,159.50 L679.00,159.50 L680.00,160.50 L682.00,160.50 L683.00,161.50 L685.00,161.50 L686.00,162.50 L687.00,162.50 L688.00,163.50 L689.00,163.50 L690.00,164.50 L691.00,164.50 L692.00,165.50 L693.00,165.50 L695.00,167.50 L696.00,167.50 L698.00,169.50 L699.00,169.50 L708.50,179.00 L708.50,180.00 L711.50,183.00 L711.50,184.00 L713.50,186.00 L713.50,187.00 L714.50,188.00 L714.50,189.00 L715.50,190.00 L715.50,191.00 L716.50,192.00 L716.50,193.00 L717.50,194.00 L717.50,196.00 L718.50,197.00 L718.50,199.00 L719.50,200.00 L719.50,203.00 L720.50,204.00 L720.50,209.00 L721.50,210.00 L721.50,413.00 L722.00,413.50 L829.00,413.50 L830.00,414.50 L836.00,414.50 L837.00,415.50 L840.00,415.50 L841.00,416.50 L843.00,416.50 L844.00,417.50 L845.00,417.50 L846.00,418.50 L847.00,418.50 L848.00,419.50 L849.00,419.50 L851.00,421.50 L852.00,421.50 L854.00,423.50 L855.00,423.50 L862.50,431.00 L862.50,432.00 L865.50,435.00 L865.50,436.00 L867.50,438.00 L867.50,439.00 L868.50,440.00 L868.50,441.00 L869.50,442.00 L869.50,443.00 L870.50,444.00 L870.50,446.00 L871.50,447.00 L871.50,450.00 L872.50,451.00 L872.50,456.00 L873.50,457.00 L873.50,584.00 L872.50,585.00 L872.50,589.00 L871.50,590.00 L871.50,593.00 L870.50,594.00 L870.50,595.00 L869.50,596.00 L869.50,597.00 L868.50,598.00 L868.50,599.00 L867.50,600.00 L867.50,601.00 L866.50,602.00 L866.50,603.00 L864.50,605.00 L864.50,606.00 L854.00,616.50 L853.00,616.50 L851.00,618.50 L850.00,618.50 L849.00,619.50 L848.00,619.50 L847.00,620.50 L846.00,620.50 L845.00,621.50 L844.00,621.50 L843.00,622.50 L841.00,622.50 L840.00,623.50 L838.00,623.50 L837.00,624.50 L834.00,624.50 L833.00,625.50 L722.00,625.50 L721.50,626.00 L721.50,813.00 L720.50,814.00 L720.50,819.00 L719.50,820.00 L719.50,823.00 L718.50,824.00 L718.50,827.00 L717.50,828.00 L717.50,829.00 L716.50,830.00 L716.50,831.00 L715.50,832.00 L715.50,834.00 L714.50,835.00 L714.50,836.00 L712.50,838.00 L712.50,839.00 L710.50,841.00 L710.50,842.00 L704.50,848.00 L704.50,849.00 L704.00,849.50 L703.00,849.50 L698.00,854.50 L697.00,854.50 L695.00,856.50 L694.00,856.50 L693.00,857.50 L692.00,857.50 L690.00,859.50 L689.00,859.50 L688.00,860.50 L686.00,860.50 L685.00,861.50 L683.00,861.50 L682.00,862.50 L680.00,862.50 L679.00,863.50 L676.00,863.50 L675.00,864.50 L668.00,864.50 L667.00,865.50 L638.00,865.50 L637.00,864.50 L610.00,864.50 L609.00,865.50 L585.00,865.50 L584.00,864.50 L582.00,864.50 L581.00,865.50 L574.00,865.50 L573.00,864.50 L562.00,864.50 L561.00,865.50 L510.00,865.50 L509.00,864.50 L482.00,864.50 L481.00,865.50 L446.00,865.50 L445.00,864.50 L442.00,864.50 L441.00,865.50 L382.00,865.50 L381.00,864.50 L380.00,865.50 L349.00,865.50 L348.00,864.50 L341.00,864.50 L340.00,863.50 L337.00,863.50 L336.00,862.50 L334.00,862.50 L333.00,861.50 L331.00,861.50 L330.00,860.50 L329.00,860.50 L328.00,859.50 L327.00,859.50 L326.00,858.50 L325.00,858.50 L324.00,857.50 L323.00,857.50 L322.00,856.50 L321.00,856.50 L319.00,854.50 L318.00,854.50 L314.00,850.50 L313.00,850.50 L309.50,847.00 L309.50,846.00 L304.50,841.00 L304.50,840.00 L302.50,838.00 L302.50,837.00 L301.50,836.00 L301.50,835.00 L300.50,834.00 L300.50,833.00 L299.50,832.00 L299.50,831.00 L298.50,830.00 L298.50,828.00 L297.50,827.00 L297.50,825.00 L296.50,824.00 L296.50,822.00 L295.50,821.00 L295.50,815.00 L294.50,814.00 L294.50,207.00 L295.50,206.00 L295.50,202.00 L296.50,201.00 L296.50,198.00 L297.50,197.00 L297.50,196.00 L298.50,195.00 L298.50,193.00 L299.50,192.00 L299.50,191.00 L300.50,190.00 L300.50,189.00 L301.50,188.00 L301.50,187.00 L302.50,186.00 L302.50,185.00 L305.50,182.00 L305.50,181.00 L310.50,176.00 L310.50,175.00 L313.00,172.50 L314.00,172.50 L318.00,168.50 L319.00,168.50 L321.00,166.50 L322.00,166.50 L323.00,165.50 L324.00,165.50 L325.00,164.50 L326.00,164.50 L327.00,163.50 L328.00,163.50 L329.00,162.50 L330.00,162.50 L331.00,161.50 L333.00,161.50 L334.00,160.50 L337.00,160.50 L338.00,159.50 L340.00,159.50 L341.00,158.50 L348.00,158.50 L349.00,157.50 M390.00,190.50 L389.00,191.50 L388.00,191.50 L383.50,196.00 L383.50,371.00 L388.00,375.50 L389.00,375.50 L390.00,376.50 L625.00,376.50 L626.00,375.50 L627.00,375.50 L631.50,371.00 L631.50,369.00 L632.50,368.00 L632.50,198.00 L631.50,197.00 L631.50,196.00 L630.50,195.00 L630.50,194.00 L628.00,191.50 L627.00,191.50 L626.00,190.50 L390.00,190.50 M330.00,252.50 L327.50,255.00 L327.50,256.00 L326.50,257.00 L326.50,278.00 L327.50,279.00 L327.50,285.00 L330.00,287.50 L359.00,287.50 L361.50,285.00 L361.50,281.00 L362.50,280.00 L362.50,278.00 L361.50,277.00 L361.50,275.00 L362.50,274.00 L362.50,256.00 L359.00,252.50 L330.00,252.50 M656.00,252.50 L654.00,254.50 L653.00,254.50 L652.50,255.00 L652.50,282.00 L653.50,283.00 L653.50,285.00 L656.00,287.50 L685.00,287.50 L686.00,286.50 L687.00,286.50 L688.50,285.00 L688.50,284.00 L689.50,283.00 L689.50,255.00 L688.00,253.50 L687.00,253.50 L686.00,252.50 L656.00,252.50 M330.00,361.50 L329.50,362.00 L329.50,363.00 L327.50,365.00 L327.50,366.00 L326.50,367.00 L326.50,393.00 L327.50,394.00 L327.50,395.00 L330.00,397.50 L354.00,397.50 L355.00,396.50 L357.00,396.50 L358.00,397.50 L359.00,397.50 L361.50,395.00 L361.50,391.00 L362.50,390.00 L362.50,366.00 L361.50,365.00 L361.50,364.00 L361.00,363.50 L360.00,363.50 L358.00,361.50 L354.00,361.50 L353.00,362.50 L352.00,362.50 L351.00,361.50 L330.00,361.50 M656.00,361.50 L655.50,362.00 L655.50,363.00 L652.50,366.00 L652.50,393.00 L653.50,394.00 L653.50,395.00 L655.00,396.50 L656.00,396.50 L657.00,397.50 L684.00,397.50 L685.00,396.50 L687.00,396.50 L689.50,394.00 L689.50,366.00 L687.50,364.00 L687.50,363.00 L686.00,361.50 L656.00,361.50 M389.00,412.50 L387.00,414.50 L386.00,414.50 L384.50,416.00 L384.50,417.00 L383.50,418.00 L383.50,593.00 L384.50,594.00 L384.50,595.00 L387.00,597.50 L388.00,597.50 L389.00,598.50 L570.00,598.50 L570.50,598.00 L570.50,597.00 L569.50,596.00 L569.50,595.00 L568.50,594.00 L568.50,592.00 L567.50,591.00 L567.50,589.00 L566.50,588.00 L566.50,585.00 L565.50,584.00 L565.50,454.00 L566.50,453.00 L566.50,450.00 L567.50,449.00 L567.50,447.00 L568.50,446.00 L568.50,445.00 L569.50,444.00 L569.50,442.00 L570.50,441.00 L570.50,440.00 L572.50,438.00 L572.50,437.00 L574.50,435.00 L574.50,434.00 L584.00,424.50 L585.00,424.50 L587.00,422.50 L588.00,422.50 L590.00,420.50 L591.00,420.50 L592.00,419.50 L593.00,419.50 L594.00,418.50 L596.00,418.50 L597.00,417.50 L599.00,417.50 L600.00,416.50 L604.00,416.50 L605.00,415.50 L629.00,415.50 L629.50,415.00 L627.00,412.50 L389.00,412.50 M649.00,429.50 L648.00,430.50 L607.00,430.50 L606.00,431.50 L605.00,430.50 L604.00,431.50 L601.00,431.50 L598.00,434.50 L596.00,434.50 L595.00,435.50 L594.00,435.50 L593.00,436.50 L592.00,436.50 L591.50,437.00 L591.50,438.00 L591.00,438.50 L590.00,438.50 L587.50,441.00 L587.50,442.00 L584.50,445.00 L584.50,446.00 L583.50,447.00 L583.50,448.00 L582.50,449.00 L582.50,451.00 L581.50,452.00 L581.50,454.00 L580.50,455.00 L580.50,457.00 L579.50,458.00 L579.50,513.00 L580.50,514.00 L579.50,515.00 L579.50,519.00 L580.50,520.00 L580.50,528.00 L579.50,529.00 L579.50,530.00 L580.50,531.00 L580.50,533.00 L579.50,534.00 L579.50,581.00 L580.50,582.00 L580.50,585.00 L581.50,586.00 L581.50,587.00 L582.50,588.00 L582.50,590.00 L584.50,592.00 L584.50,594.00 L586.50,596.00 L586.50,597.00 L592.00,602.50 L593.00,602.50 L595.00,604.50 L596.00,604.50 L598.00,606.50 L599.00,605.50 L600.00,606.50 L601.00,606.50 L603.00,608.50 L606.00,608.50 L607.00,609.50 L647.00,609.50 L647.50,610.00 L647.50,612.00 L646.50,613.00 L646.50,616.00 L645.50,617.00 L645.50,619.00 L644.50,620.00 L644.50,621.00 L643.50,622.00 L643.50,624.00 L642.50,625.00 L643.50,626.00 L642.50,627.00 L642.50,628.00 L641.50,629.00 L641.50,631.00 L640.50,632.00 L640.50,634.00 L639.50,635.00 L639.50,637.00 L638.50,638.00 L638.50,640.00 L637.50,641.00 L637.50,644.00 L636.50,645.00 L636.50,647.00 L635.50,648.00 L635.50,650.00 L634.50,651.00 L634.50,653.00 L633.50,654.00 L633.50,656.00 L632.50,657.00 L632.50,659.00 L631.50,660.00 L631.50,662.00 L630.50,663.00 L630.50,665.00 L629.50,666.00 L629.50,668.00 L628.50,669.00 L628.50,671.00 L627.50,672.00 L627.50,674.00 L626.50,675.00 L626.50,677.00 L625.50,678.00 L625.50,680.00 L624.50,681.00 L624.50,686.00 L625.00,686.50 L626.00,686.50 L627.00,687.50 L628.50,686.00 L628.50,685.00 L630.00,683.50 L631.00,683.50 L634.00,680.50 L635.00,680.50 L635.50,680.00 L635.50,679.00 L636.00,678.50 L637.00,678.50 L641.00,674.50 L642.00,674.50 L647.50,669.00 L647.50,668.00 L648.00,667.50 L649.00,667.50 L650.00,666.50 L651.00,666.50 L651.50,666.00 L651.50,665.00 L654.00,662.50 L655.00,662.50 L658.00,659.50 L659.00,659.50 L664.00,654.50 L665.00,654.50 L665.50,654.00 L665.50,653.00 L668.00,650.50 L669.00,650.50 L671.00,648.50 L672.00,648.50 L678.00,642.50 L679.00,642.50 L683.50,638.00 L683.50,637.00 L684.00,636.50 L686.00,636.50 L691.00,631.50 L692.00,631.50 L699.00,624.50 L700.00,624.50 L706.00,618.50 L707.00,618.50 L716.00,609.50 L825.00,609.50 L826.00,608.50 L828.00,608.50 L829.00,609.50 L830.00,609.50 L831.00,608.50 L834.00,608.50 L835.00,607.50 L837.00,607.50 L838.00,606.50 L839.00,606.50 L839.50,606.00 L839.50,605.00 L840.00,604.50 L841.00,604.50 L842.00,603.50 L843.00,603.50 L845.00,601.50 L846.00,601.50 L851.50,596.00 L851.50,595.00 L853.50,593.00 L853.50,592.00 L854.50,591.00 L854.50,590.00 L855.50,589.00 L855.50,588.00 L856.50,587.00 L856.50,584.00 L857.50,583.00 L857.50,457.00 L856.50,456.00 L856.50,453.00 L855.50,452.00 L855.50,451.00 L854.50,450.00 L854.50,448.00 L852.50,446.00 L852.50,445.00 L849.50,442.00 L849.50,441.00 L846.00,437.50 L845.00,437.50 L843.00,435.50 L842.00,435.50 L840.00,433.50 L839.00,433.50 L838.00,432.50 L837.00,433.50 L835.00,431.50 L833.00,431.50 L832.00,430.50 L698.00,430.50 L697.00,429.50 L696.00,429.50 L695.00,430.50 L667.00,430.50 L666.00,429.50 L649.00,429.50 M330.00,472.50 L327.50,475.00 L327.50,479.00 L326.50,480.00 L326.50,504.00 L327.50,505.00 L327.50,506.00 L329.00,507.50 L330.00,507.50 L331.00,508.50 L356.00,508.50 L357.00,507.50 L360.00,507.50 L361.50,506.00 L361.50,505.00 L362.50,504.00 L362.50,476.00 L360.00,473.50 L359.00,473.50 L358.00,472.50 L330.00,472.50 M331.00,582.50 L327.50,586.00 L327.50,590.00 L326.50,591.00 L326.50,613.00 L327.50,614.00 L327.50,616.00 L330.00,618.50 L348.00,618.50 L349.00,617.50 L350.00,618.50 L351.00,618.50 L352.00,617.50 L353.00,617.50 L354.00,618.50 L357.00,618.50 L358.00,617.50 L360.00,617.50 L361.50,616.00 L361.50,615.00 L362.50,614.00 L362.50,586.00 L360.00,583.50 L359.00,583.50 L358.00,582.50 L355.00,582.50 L354.00,583.50 L335.00,583.50 L334.00,582.50 L331.00,582.50 M390.00,634.50 L389.00,635.50 L388.00,635.50 L383.50,640.00 L383.50,807.00 L382.50,808.00 L382.50,812.00 L383.50,813.00 L383.50,815.00 L384.50,816.00 L384.50,817.00 L387.00,819.50 L388.00,819.50 L389.00,820.50 L626.00,820.50 L627.00,819.50 L628.00,819.50 L630.50,817.00 L630.50,816.00 L631.50,815.00 L631.50,814.00 L632.50,813.00 L632.50,700.00 L632.00,699.50 L631.00,699.50 L628.00,702.50 L627.00,702.50 L622.00,707.50 L621.00,707.50 L614.00,714.50 L613.00,714.50 L606.00,721.50 L605.00,721.50 L597.00,729.50 L596.00,729.50 L595.50,729.00 L596.50,728.00 L596.50,726.00 L597.50,725.00 L597.50,722.00 L598.50,721.00 L598.50,719.00 L599.50,718.00 L599.50,716.00 L600.50,715.00 L600.50,712.00 L601.50,711.00 L601.50,709.00 L602.50,708.00 L602.50,706.00 L603.50,705.00 L603.50,703.00 L604.50,702.00 L604.50,700.00 L605.50,699.00 L605.50,697.00 L606.50,696.00 L606.50,694.00 L607.50,693.00 L607.50,690.00 L608.50,689.00 L608.50,687.00 L609.50,686.00 L609.50,684.00 L610.50,683.00 L610.50,681.00 L611.50,680.00 L611.50,678.00 L612.50,677.00 L612.50,675.00 L613.50,674.00 L613.50,671.00 L614.50,670.00 L614.50,668.00 L615.50,667.00 L615.50,665.00 L616.50,664.00 L616.50,662.00 L617.50,661.00 L617.50,659.00 L618.50,658.00 L618.50,656.00 L619.50,655.00 L619.50,653.00 L620.50,652.00 L620.50,650.00 L621.50,649.00 L621.50,647.00 L622.50,646.00 L622.50,644.00 L623.50,643.00 L623.50,641.00 L624.50,640.00 L624.50,638.00 L625.50,637.00 L625.50,635.00 L625.00,634.50 L390.00,634.50 M335.00,692.50 L334.00,693.50 L329.00,693.50 L327.50,695.00 L327.50,696.00 L326.50,697.00 L326.50,699.00 L327.50,700.00 L327.50,701.00 L326.50,702.00 L326.50,724.00 L327.50,725.00 L327.50,726.00 L328.00,726.50 L329.00,726.50 L331.00,728.50 L346.00,728.50 L347.00,727.50 L352.00,727.50 L353.00,728.50 L358.00,728.50 L359.00,727.50 L360.00,727.50 L361.50,726.00 L361.50,725.00 L362.50,724.00 L362.50,696.00 L360.00,693.50 L359.00,693.50 L358.00,692.50 L335.00,692.50 M659.00,692.50 L658.00,693.50 L656.00,693.50 L652.50,697.00 L652.50,723.00 L653.50,724.00 L653.50,726.00 L655.00,727.50 L657.00,727.50 L658.00,728.50 L684.00,728.50 L685.00,727.50 L687.00,727.50 L688.50,726.00 L688.50,725.00 L689.50,724.00 L689.50,697.00 L688.50,696.00 L688.50,695.00 L687.00,693.50 L686.00,693.50 L685.00,692.50 L661.00,692.50 L660.00,693.50 L659.00,692.50 M330.00,795.50 L326.50,799.00 L326.50,826.00 L327.50,827.00 L327.50,828.00 L328.50,829.00 L328.50,830.00 L329.00,830.50 L332.00,830.50 L333.00,829.50 L339.00,829.50 L340.00,830.50 L341.00,830.50 L342.00,829.50 L360.00,829.50 L361.50,828.00 L361.50,827.00 L362.50,826.00 L361.50,825.00 L361.50,824.00 L362.50,823.00 L362.50,799.00 L359.00,795.50 L330.00,795.50 M656.00,795.50 L652.50,799.00 L652.50,826.00 L657.00,830.50 L658.00,829.50 L659.00,830.50 L673.00,830.50 L674.00,829.50 L679.00,829.50 L680.00,830.50 L681.00,829.50 L686.00,829.50 L687.00,828.50 L688.00,828.50 L689.50,827.00 L689.50,818.00 L688.50,817.00 L688.50,816.00 L689.50,815.00 L689.50,798.00 L687.00,795.50 L656.00,795.50 L656.00,795.50 L0.00,0.00" />
  <path fill="#a6a7a6" fill-rule="evenodd" stroke="none" d="M390.00,190.50 L626.00,190.50 L627.00,191.50 L628.00,191.50 L630.50,194.00 L630.50,195.00 L631.50,196.00 L631.50,197.00 L632.50,198.00 L632.50,368.00 L631.50,369.00 L631.50,371.00 L627.00,375.50 L626.00,375.50 L625.00,376.50 L390.00,376.50 L389.00,375.50 L388.00,375.50 L383.50,371.00 L383.50,196.00 L388.00,191.50 L389.00,191.50 L390.00,190.50 M389.00,412.50 L627.00,412.50 L629.50,415.00 L629.00,415.50 L605.00,415.50 L604.00,416.50 L600.00,416.50 L599.00,417.50 L597.00,417.50 L596.00,418.50 L594.00,418.50 L593.00,419.50 L592.00,419.50 L591.00,420.50 L590.00,420.50 L588.00,422.50 L587.00,422.50 L585.00,424.50 L584.00,424.50 L574.50,434.00 L574.50,435.00 L572.50,437.00 L572.50,438.00 L570.50,440.00 L570.50,441.00 L569.50,442.00 L569.50,444.00 L568.50,445.00 L568.50,446.00 L567.50,447.00 L567.50,449.00 L566.50,450.00 L566.50,453.00 L565.50,454.00 L565.50,584.00 L566.50,585.00 L566.50,588.00 L567.50,589.00 L567.50,591.00 L568.50,592.00 L568.50,594.00 L569.50,595.00 L569.50,596.00 L570.50,597.00 L570.50,598.00 L570.00,598.50 L389.00,598.50 L388.00,597.50 L387.00,597.50 L384.50,595.00 L384.50,594.00 L383.50,593.00 L383.50,418.00 L384.50,417.00 L384.50,416.00 L386.00,414.50 L387.00,414.50 L389.00,412.50 M390.00,634.50 L625.00,634.50 L625.50,635.00 L625.50,637.00 L624.50,638.00 L624.50,640.00 L623.50,641.00 L623.50,643.00 L622.50,644.00 L622.50,646.00 L621.50,647.00 L621.50,649.00 L620.50,650.00 L620.50,652.00 L619.50,653.00 L619.50,655.00 L618.50,656.00 L618.50,658.00 L617.50,659.00 L617.50,661.00 L616.50,662.00 L616.50,664.00 L615.50,665.00 L615.50,667.00 L614.50,668.00 L614.50,670.00 L613.50,671.00 L613.50,674.00 L612.50,675.00 L612.50,677.00 L611.50,678.00 L611.50,680.00 L610.50,681.00 L610.50,683.00 L609.50,684.00 L609.50,686.00 L608.50,687.00 L608.50,689.00 L607.50,690.00 L607.50,693.00 L606.50,694.00 L606.50,696.00 L605.50,697.00 L605.50,699.00 L604.50,700.00 L604.50,702.00 L603.50,703.00 L603.50,705.00 L602.50,706.00 L602.50,708.00 L601.50,709.00 L601.50,711.00 L600.50,712.00 L600.50,715.00 L599.50,716.00 L599.50,718.00 L598.50,719.00 L598.50,721.00 L597.50,722.00 L597.50,725.00 L596.50,726.00 L596.50,728.00 L595.50,729.00 L596.00,729.50 L597.00,729.50 L605.00,721.50 L606.00,721.50 L613.00,714.50 L614.00,714.50 L621.00,707.50 L622.00,707.50 L627.00,702.50 L628.00,702.50 L631.00,699.50 L632.00,699.50 L632.50,700.00 L632.50,813.00 L631.50,814.00 L631.50,815.00 L630.50,816.00 L630.50,817.00 L628.00,819.50 L627.00,819.50 L626.00,820.50 L389.00,820.50 L388.00,819.50 L387.00,819.50 L384.50,817.00 L384.50,816.00 L383.50,815.00 L383.50,813.00 L382.50,812.00 L382.50,808.00 L383.50,807.00 L383.50,640.00 L388.00,635.50 L389.00,635.50 L390.00,634.50 L390.00,634.50 L0.00,0.00" />
  <path fill="#e8ba26" fill-rule="evenodd" stroke="none" d="M330.00,252.50 L359.00,252.50 L362.50,256.00 L362.50,274.00 L361.50,275.00 L361.50,277.00 L362.50,278.00 L362.50,280.00 L361.50,281.00 L361.50,285.00 L359.00,287.50 L330.00,287.50 L327.50,285.00 L327.50,279.00 L326.50,278.00 L326.50,257.00 L327.50,256.00 L327.50,255.00 L330.00,252.50 M656.00,252.50 L686.00,252.50 L687.00,253.50 L688.00,253.50 L689.50,255.00 L689.50,283.00 L688.50,284.00 L688.50,285.00 L687.00,286.50 L686.00,286.50 L685.00,287.50 L656.00,287.50 L653.50,285.00 L653.50,283.00 L652.50,282.00 L652.50,255.00 L653.00,254.50 L654.00,254.50 L656.00,252.50 M330.00,361.50 L351.00,361.50 L352.00,362.50 L353.00,362.50 L354.00,361.50 L358.00,361.50 L360.00,363.50 L361.00,363.50 L361.50,364.00 L361.50,365.00 L362.50,366.00 L362.50,390.00 L361.50,391.00 L361.50,395.00 L359.00,397.50 L358.00,397.50 L357.00,396.50 L355.00,396.50 L354.00,397.50 L330.00,397.50 L327.50,395.00 L327.50,394.00 L326.50,393.00 L326.50,367.00 L327.50,366.00 L327.50,365.00 L329.50,363.00 L329.50,362.00 L330.00,361.50 M656.00,361.50 L686.00,361.50 L687.50,363.00 L687.50,364.00 L689.50,366.00 L689.50,394.00 L687.00,396.50 L685.00,396.50 L684.00,397.50 L657.00,397.50 L656.00,396.50 L655.00,396.50 L653.50,395.00 L653.50,394.00 L652.50,393.00 L652.50,366.00 L655.50,363.00 L655.50,362.00 L656.00,361.50 M649.00,429.50 L666.00,429.50 L667.00,430.50 L695.00,430.50 L696.00,429.50 L697.00,429.50 L698.00,430.50 L832.00,430.50 L833.00,431.50 L835.00,431.50 L837.00,433.50 L838.00,432.50 L839.00,433.50 L840.00,433.50 L842.00,435.50 L843.00,435.50 L845.00,437.50 L846.00,437.50 L849.50,441.00 L849.50,442.00 L852.50,445.00 L852.50,446.00 L854.50,448.00 L854.50,450.00 L855.50,451.00 L855.50,452.00 L856.50,453.00 L856.50,456.00 L857.50,457.00 L857.50,583.00 L856.50,584.00 L856.50,587.00 L855.50,588.00 L855.50,589.00 L854.50,590.00 L854.50,591.00 L853.50,592.00 L853.50,593.00 L851.50,595.00 L851.50,596.00 L846.00,601.50 L845.00,601.50 L843.00,603.50 L842.00,603.50 L841.00,604.50 L840.00,604.50 L839.50,605.00 L839.50,606.00 L839.00,606.50 L838.00,606.50 L837.00,607.50 L835.00,607.50 L834.00,608.50 L831.00,608.50 L830.00,609.50 L829.00,609.50 L828.00,608.50 L826.00,608.50 L825.00,609.50 L716.00,609.50 L707.00,618.50 L706.00,618.50 L700.00,624.50 L699.00,624.50 L692.00,631.50 L691.00,631.50 L686.00,636.50 L684.00,636.50 L683.50,637.00 L683.50,638.00 L679.00,642.50 L678.00,642.50 L672.00,648.50 L671.00,648.50 L669.00,650.50 L668.00,650.50 L665.50,653.00 L665.50,654.00 L665.00,654.50 L664.00,654.50 L659.00,659.50 L658.00,659.50 L655.00,662.50 L654.00,662.50 L651.50,665.00 L651.50,666.00 L651.00,666.50 L650.00,666.50 L649.00,667.50 L648.00,667.50 L647.50,668.00 L647.50,669.00 L642.00,674.50 L641.00,674.50 L637.00,678.50 L636.00,678.50 L635.50,679.00 L635.50,680.00 L635.00,680.50 L634.00,680.50 L631.00,683.50 L630.00,683.50 L628.50,685.00 L628.50,686.00 L627.00,687.50 L626.00,686.50 L625.00,686.50 L624.50,686.00 L624.50,681.00 L625.50,680.00 L625.50,678.00 L626.50,677.00 L626.50,675.00 L627.50,674.00 L627.50,672.00 L628.50,671.00 L628.50,669.00 L629.50,668.00 L629.50,666.00 L630.50,665.00 L630.50,663.00 L631.50,662.00 L631.50,660.00 L632.50,659.00 L632.50,657.00 L633.50,656.00 L633.50,654.00 L634.50,653.00 L634.50,651.00 L635.50,650.00 L635.50,648.00 L636.50,647.00 L636.50,645.00 L637.50,644.00 L637.50,641.00 L638.50,640.00 L638.50,638.00 L639.50,637.00 L639.50,635.00 L640.50,634.00 L640.50,632.00 L641.50,631.00 L641.50,629.00 L642.50,628.00 L642.50,627.00 L643.50,626.00 L642.50,625.00 L643.50,624.00 L643.50,622.00 L644.50,621.00 L644.50,620.00 L645.50,619.00 L645.50,617.00 L646.50,616.00 L646.50,613.00 L647.50,612.00 L647.50,610.00 L647.00,609.50 L607.00,609.50 L606.00,608.50 L603.00,608.50 L601.00,606.50 L600.00,606.50 L599.00,605.50 L598.00,606.50 L596.00,604.50 L595.00,604.50 L593.00,602.50 L592.00,602.50 L586.50,597.00 L586.50,596.00 L584.50,594.00 L584.50,592.00 L582.50,590.00 L582.50,588.00 L581.50,587.00 L581.50,586.00 L580.50,585.00 L580.50,582.00 L579.50,581.00 L579.50,534.00 L580.50,533.00 L580.50,531.00 L579.50,530.00 L579.50,529.00 L580.50,528.00 L580.50,520.00 L579.50,519.00 L579.50,515.00 L580.50,514.00 L579.50,513.00 L579.50,458.00 L580.50,457.00 L580.50,455.00 L581.50,454.00 L581.50,452.00 L582.50,451.00 L582.50,449.00 L583.50,448.00 L583.50,447.00 L584.50,446.00 L584.50,445.00 L587.50,442.00 L587.50,441.00 L590.00,438.50 L591.00,438.50 L591.50,438.00 L591.50,437.00 L592.00,436.50 L593.00,436.50 L594.00,435.50 L595.00,435.50 L596.00,434.50 L598.00,434.50 L601.00,431.50 L604.00,431.50 L605.00,430.50 L606.00,431.50 L607.00,430.50 L648.00,430.50 L649.00,429.50 M330.00,472.50 L358.00,472.50 L359.00,473.50 L360.00,473.50 L362.50,476.00 L362.50,504.00 L361.50,505.00 L361.50,506.00 L360.00,507.50 L357.00,507.50 L356.00,508.50 L331.00,508.50 L330.00,507.50 L329.00,507.50 L327.50,506.00 L327.50,505.00 L326.50,504.00 L326.50,480.00 L327.50,479.00 L327.50,475.00 L330.00,472.50 M331.00,582.50 L334.00,582.50 L335.00,583.50 L354.00,583.50 L355.00,582.50 L358.00,582.50 L359.00,583.50 L360.00,583.50 L362.50,586.00 L362.50,614.00 L361.50,615.00 L361.50,616.00 L360.00,617.50 L358.00,617.50 L357.00,618.50 L354.00,618.50 L353.00,617.50 L352.00,617.50 L351.00,618.50 L350.00,618.50 L349.00,617.50 L348.00,618.50 L330.00,618.50 L327.50,616.00 L327.50,614.00 L326.50,613.00 L326.50,591.00 L327.50,590.00 L327.50,586.00 L331.00,582.50 M335.00,692.50 L358.00,692.50 L359.00,693.50 L360.00,693.50 L362.50,696.00 L362.50,724.00 L361.50,725.00 L361.50,726.00 L360.00,727.50 L359.00,727.50 L358.00,728.50 L353.00,728.50 L352.00,727.50 L347.00,727.50 L346.00,728.50 L331.00,728.50 L329.00,726.50 L328.00,726.50 L327.50,726.00 L327.50,725.00 L326.50,724.00 L326.50,702.00 L327.50,701.00 L327.50,700.00 L326.50,699.00 L326.50,697.00 L327.50,696.00 L327.50,695.00 L329.00,693.50 L334.00,693.50 L335.00,692.50 M659.00,692.50 L660.00,693.50 L661.00,692.50 L685.00,692.50 L686.00,693.50 L687.00,693.50 L688.50,695.00 L688.50,696.00 L689.50,697.00 L689.50,724.00 L688.50,725.00 L688.50,726.00 L687.00,727.50 L685.00,727.50 L684.00,728.50 L658.00,728.50 L657.00,727.50 L655.00,727.50 L653.50,726.00 L653.50,724.00 L652.50,723.00 L652.50,697.00 L656.00,693.50 L658.00,693.50 L659.00,692.50 M330.00,795.50 L359.00,795.50 L362.50,799.00 L362.50,823.00 L361.50,824.00 L361.50,825.00 L362.50,826.00 L361.50,827.00 L361.50,828.00 L360.00,829.50 L342.00,829.50 L341.00,830.50 L340.00,830.50 L339.00,829.50 L333.00,829.50 L332.00,830.50 L329.00,830.50 L328.50,830.00 L328.50,829.00 L327.50,828.00 L327.50,827.00 L326.50,826.00 L326.50,799.00 L330.00,795.50 M656.00,795.50 L687.00,795.50 L689.50,798.00 L689.50,815.00 L688.50,816.00 L688.50,817.00 L689.50,818.00 L689.50,827.00 L688.00,828.50 L687.00,828.50 L686.00,829.50 L681.00,829.50 L680.00,830.50 L679.00,829.50 L674.00,829.50 L673.00,830.50 L659.00,830.50 L658.00,829.50 L657.00,830.50 L652.50,826.00 L652.50,799.00 L656.00,795.50 L656.00,795.50 L0.00,0.00" />
</svg>
